
>>
>> "C:\Program Files (x86)\ffmpegyag\bin\ffmpeg.exe" -i "C:\Users\muham\Desktop\dsmoke\src\pages\assets\backgroundVideo.mp4" -strict experimental -f webm -map_chapters -1 -map 0:0 -map 0:1 -sn -b:a:0 192k -b:v:0 20000k -mbd:v:0 rd -mbcmp:v:0 rd -cmp:v:0 rd -precmp:v:0 rd -subcmp:v:0 rd -trellis:v:0 1 -y "C:\Users\muham\Desktop\dsmoke\src\pages\assets\backgroundVideo.webm"
>>

ffmpeg version 2.5.2 Copyright (c) 2000-2014 the FFmpeg developers
  built on Dec 30 2014 17:18:09 with gcc 4.9.2 (GCC)
  configuration: --disable-static --enable-shared --enable-gpl --enable-version3 --disable-w32threads --enable-avisynth --enable-bzlib --enable-fontconfig --enable-frei0r --enable-gnutls --enable-iconv --enable-libass --enable-libbluray --enable-libbs2b --enable-libcaca --enable-libfreetype --enable-libgme --enable-libgsm --enable-libilbc --enable-libmodplug --enable-libmp3lame --enable-libopencore-amrnb --enable-libopencore-amrwb --enable-libopenjpeg --enable-libopus --enable-librtmp --enable-libschroedinger --enable-libsoxr --enable-libspeex --enable-libtheora --enable-libtwolame --enable-libvidstab --enable-libvo-aacenc --enable-libvo-amrwbenc --enable-libvorbis --enable-libvpx --enable-libwavpack --enable-libwebp --enable-libx264 --enable-libx265 --enable-libxavs --enable-libxvid --enable-lzma --enable-decklink --enable-zlib
  libavutil      54. 15.100 / 54. 15.100
  libavcodec     56. 13.100 / 56. 13.100
  libavformat    56. 15.102 / 56. 15.102
  libavdevice    56.  3.100 / 56.  3.100
  libavfilter     5.  2.103 /  5.  2.103
  libswscale      3.  1.101 /  3.  1.101
  libswresample   1.  1.100 /  1.  1.100
  libpostproc    53.  3.100 / 53.  3.100
Input #0, mov,mp4,m4a,3gp,3g2,mj2, from 'C:\Users\muham\Desktop\dsmoke\src\pages\assets\backgroundVideo.mp4':
  Metadata:
    major_brand     : mp42
    minor_version   : 512
    compatible_brands: isomiso2avc1mp41
    creation_time   : 2023-11-24 10:19:49
    encoder         : HandBrake 1.3.1 2020010400
  Duration: 00:00:19.30, start: 0.023220, bitrate: 1545 kb/s
    Stream #0:0(und): Video: h264 (Main) (avc1 / 0x31637661), yuv420p(tv, bt709), 1920x1080 [SAR 167:160 DAR 167:90], 1536 kb/s, 24 fps, 24 tbr, 90k tbn, 180k tbc (default)
    Metadata:
      creation_time   : 2023-11-24 10:19:49
      handler_name    : VideoHandler
    Stream #0:1(und): Audio: aac (LC) (mp4a / 0x6134706D), 44100 Hz, stereo, fltp, 2 kb/s (default)
    Metadata:
      creation_time   : 2023-11-24 10:19:49
      handler_name    : Stereo
[libvpx @ 02806380] v1.3.0
Output #0, webm, to 'C:\Users\muham\Desktop\dsmoke\src\pages\assets\backgroundVideo.webm':
  Metadata:
    major_brand     : mp42
    minor_version   : 512
    compatible_brands: isomiso2avc1mp41
    encoder         : Lavf56.15.102
    Stream #0:0(und): Video: vp8 (libvpx), yuv420p, 1920x1080 [SAR 167:160 DAR 167:90], q=-1--1, 20000 kb/s, 24 fps, 1k tbn, 24 tbc (default)
    Metadata:
      creation_time   : 2023-11-24 10:19:49
      handler_name    : VideoHandler
      encoder         : Lavc56.13.100 libvpx
    Stream #0:1(und): Audio: vorbis (libvorbis), 44100 Hz, stereo, fltp, 192 kb/s (default)
    Metadata:
      creation_time   : 2023-11-24 10:19:49
      handler_name    : Stereo
      encoder         : Lavc56.13.100 libvorbis
Stream mapping:
  Stream #0:0 -> #0:0 (h264 (native) -> vp8 (libvpx))
  Stream #0:1 -> #0:1 (aac (native) -> vorbis (libvorbis))
Press [q] to stop, [?] for help
video:3018kB audio:1kB subtitle:0kB other streams:0kB global headers:4kB muxing overhead: 0.414774%
